<svg xmlns="http://www.w3.org/2000/svg" xmlns:xlink="http://www.w3.org/1999/xlink" width="52" zoomAndPan="magnify" viewBox="0 0 39 38.999999" height="52" preserveAspectRatio="xMidYMid meet" version="1.2"><g id="f429fb3a9f"><path style=" stroke:none;fill-rule:nonzero;fill:#fbcd91;fill-opacity:1;" d="M 9.269531 19.410156 C 9.269531 23.808594 7.714844 27.835938 5.140625 31.011719 C 4.800781 31.433594 4.152344 31.417969 3.828125 30.984375 C 1.421875 27.753906 0 23.75 0 19.410156 C 0 15.074219 1.421875 11.070312 3.828125 7.839844 C 4.152344 7.40625 4.800781 7.390625 5.140625 7.8125 C 7.714844 10.988281 9.269531 15.015625 9.269531 19.410156 Z M 34.996094 7.839844 C 34.671875 7.40625 34.027344 7.390625 33.683594 7.8125 C 31.109375 10.988281 29.554688 15.015625 29.554688 19.410156 C 29.554688 23.808594 31.109375 27.835938 33.683594 31.011719 C 34.023438 31.433594 34.671875 31.417969 34.996094 30.984375 C 37.402344 27.753906 38.824219 23.75 38.824219 19.410156 C 38.824219 15.074219 37.402344 11.070312 34.996094 7.839844 Z M 33.085938 5.636719 C 29.574219 2.152344 24.746094 0 19.410156 0 C 14.078125 0 9.25 2.152344 5.738281 5.636719 C 9.082031 9.261719 11.132812 14.101562 11.132812 19.410156 C 11.132812 24.722656 9.082031 29.5625 5.738281 33.1875 C 9.25 36.671875 14.078125 38.824219 19.410156 38.824219 C 24.746094 38.824219 29.574219 36.671875 33.085938 33.1875 C 29.742188 29.5625 27.695312 24.722656 27.695312 19.410156 C 27.695312 14.101562 29.742188 9.261719 33.085938 5.636719 Z M 33.085938 5.636719 "/><path style=" stroke:none;fill-rule:nonzero;fill:#fbcd91;fill-opacity:1;" d="M 9.269531 19.410156 C 9.269531 23.808594 7.714844 27.835938 5.140625 31.011719 C 4.800781 31.433594 4.152344 31.417969 3.828125 30.984375 C 1.421875 27.753906 0 23.75 0 19.410156 C 0 15.074219 1.421875 11.070312 3.828125 7.839844 C 4.152344 7.40625 4.800781 7.390625 5.140625 7.8125 C 7.714844 10.988281 9.269531 15.015625 9.269531 19.410156 Z M 34.996094 7.839844 C 34.671875 7.40625 34.027344 7.390625 33.683594 7.8125 C 31.109375 10.988281 29.554688 15.015625 29.554688 19.410156 C 29.554688 23.808594 31.109375 27.835938 33.683594 31.011719 C 34.023438 31.433594 34.671875 31.417969 34.996094 30.984375 C 37.402344 27.753906 38.824219 23.75 38.824219 19.410156 C 38.824219 15.074219 37.402344 11.070312 34.996094 7.839844 Z M 33.085938 5.636719 C 29.574219 2.152344 24.746094 0 19.410156 0 C 14.078125 0 9.25 2.152344 5.738281 5.636719 C 9.082031 9.261719 11.132812 14.101562 11.132812 19.410156 C 11.132812 24.722656 9.082031 29.5625 5.738281 33.1875 C 9.25 36.671875 14.078125 38.824219 19.410156 38.824219 C 24.746094 38.824219 29.574219 36.671875 33.085938 33.1875 C 29.742188 29.5625 27.695312 24.722656 27.695312 19.410156 C 27.695312 14.101562 29.742188 9.261719 33.085938 5.636719 Z M 33.085938 5.636719 "/></g></svg>