<svg xmlns="http://www.w3.org/2000/svg" xmlns:xlink="http://www.w3.org/1999/xlink" width="525" zoomAndPan="magnify" viewBox="0 0 393.75 101.249998" height="135" preserveAspectRatio="xMidYMid meet" version="1.2"><defs><clipPath id="1af2f0ed70"><path d="M 1.324219 30.722656 L 40 30.722656 L 40 69.433594 L 1.324219 69.433594 Z M 1.324219 30.722656 "/></clipPath></defs><g id="3a9162b4d9"><g clip-rule="nonzero" clip-path="url(#1af2f0ed70)"><path style=" stroke:none;fill-rule:nonzero;fill:#fbcd91;fill-opacity:1;" d="M 10.523438 49.992188 C 10.523438 54.351562 8.980469 58.355469 6.425781 61.503906 C 6.085938 61.921875 5.445312 61.910156 5.125 61.476562 C 2.738281 58.269531 1.324219 54.296875 1.324219 49.992188 C 1.324219 45.683594 2.738281 41.710938 5.125 38.503906 C 5.445312 38.070312 6.085938 38.058594 6.425781 38.476562 C 8.980469 41.628906 10.523438 45.628906 10.523438 49.992188 Z M 36.0625 38.503906 C 35.742188 38.070312 35.097656 38.058594 34.761719 38.476562 C 32.203125 41.628906 30.660156 45.628906 30.660156 49.992188 C 30.660156 54.351562 32.203125 58.355469 34.757812 61.503906 C 35.097656 61.921875 35.742188 61.910156 36.0625 61.476562 C 38.449219 58.269531 39.863281 54.296875 39.863281 49.992188 C 39.863281 45.683594 38.449219 41.710938 36.0625 38.503906 Z M 34.164062 36.316406 C 30.679688 32.859375 25.886719 30.722656 20.59375 30.722656 C 15.296875 30.722656 10.503906 32.859375 7.019531 36.316406 C 10.339844 39.914062 12.371094 44.71875 12.371094 49.992188 C 12.371094 55.261719 10.339844 60.066406 7.019531 63.664062 C 10.503906 67.121094 15.296875 69.257812 20.59375 69.257812 C 25.886719 69.257812 30.683594 67.121094 34.164062 63.664062 C 30.84375 60.066406 28.8125 55.261719 28.8125 49.992188 C 28.8125 44.71875 30.84375 39.914062 34.164062 36.316406 Z M 34.164062 36.316406 "/></g><g style="fill:#fbcd91;fill-opacity:1;"><g transform="translate(60.164564, 67.291504)"><path style="stroke:none" d="M 19.152344 0.582031 C 27.742188 0.582031 35.113281 -3.773438 35.113281 -11.433594 C 35.113281 -27.683594 12.421875 -20.429688 12.421875 -32.851562 C 12.421875 -35.695312 14.160156 -37.957031 17.816406 -37.957031 C 25.015625 -37.957031 23.214844 -27.105469 30.238281 -27.105469 C 33.199219 -27.105469 34.648438 -28.789062 34.648438 -31.339844 C 34.707031 -36.625 27.628906 -41.730469 17.992188 -41.730469 C 8.414062 -41.730469 2.261719 -36.566406 2.261719 -29.195312 C 2.320312 -12.1875 25.074219 -19.386719 25.074219 -8.066406 C 25.074219 -5.050781 22.925781 -3.25 19.558594 -3.25 C 10.851562 -3.25 12.015625 -14.046875 5.746094 -14.105469 C 2.84375 -14.105469 1.566406 -12.421875 1.566406 -9.984375 C 1.566406 -4.816406 8.53125 0.582031 19.152344 0.582031 Z M 19.152344 0.582031 "/></g></g><g style="fill:#fbcd91;fill-opacity:1;"><g transform="translate(96.958712, 67.291504)"><path style="stroke:none" d="M 25.246094 -9.171875 C 24.203125 -7.777344 21.9375 -6.617188 19.445312 -6.617188 C 16.597656 -6.617188 14.335938 -8.007812 12.828125 -10.390625 L 24.375 -16.890625 C 25.710938 -17.585938 26.640625 -18.746094 26.640625 -20.488281 C 26.640625 -24.144531 23.15625 -28.441406 15.554688 -28.441406 C 7.953125 -28.441406 1.277344 -22.695312 1.277344 -14.105469 C 1.277344 -5.28125 7.195312 0.582031 15.613281 0.582031 C 23.214844 0.582031 27.277344 -5.164062 27.394531 -8.359375 C 27.453125 -9.632812 26.058594 -9.984375 25.246094 -9.171875 Z M 14.511719 -25.59375 C 17.46875 -25.59375 18.398438 -21.476562 18.398438 -19.617188 C 18.398438 -18.398438 17.816406 -17.296875 16.890625 -16.65625 L 11.492188 -13.40625 C 10.910156 -15.148438 10.621094 -17.238281 10.621094 -19.5 C 10.621094 -22.867188 12.128906 -25.59375 14.511719 -25.59375 Z M 14.511719 -25.59375 "/></g></g><g style="fill:#fbcd91;fill-opacity:1;"><g transform="translate(125.337806, 67.291504)"><path style="stroke:none" d="M 13.523438 0.582031 C 19.851562 0.582031 23.15625 -4.121094 23.15625 -8.589844 C 23.15625 -9.691406 21.765625 -10.039062 20.953125 -8.996094 C 20.3125 -7.953125 19.386719 -6.847656 17.121094 -6.847656 C 15.671875 -6.847656 14.511719 -8.007812 14.511719 -9.984375 L 14.511719 -23.914062 L 20.488281 -23.914062 C 21.242188 -23.914062 21.824219 -24.492188 21.824219 -25.246094 L 21.824219 -26.523438 C 21.824219 -27.277344 21.242188 -27.859375 20.488281 -27.859375 L 14.511719 -27.859375 L 14.511719 -33.722656 C 14.511719 -34.648438 13.871094 -35.230469 12.941406 -35.230469 L 11.609375 -35.230469 C 10.851562 -35.230469 10.214844 -34.648438 10.039062 -33.722656 C 9.285156 -30.179688 6.5 -27.859375 2.960938 -27.859375 L 1.855469 -27.859375 C 1.042969 -27.859375 0.523438 -27.335938 0.523438 -26.523438 L 0.523438 -25.246094 C 0.523438 -24.492188 1.101562 -23.914062 1.855469 -23.914062 L 4.0625 -23.914062 L 4.0625 -10.15625 C 4.0625 -3.132812 7.777344 0.582031 13.523438 0.582031 Z M 13.523438 0.582031 "/></g></g><g style="fill:#fbcd91;fill-opacity:1;"><g transform="translate(148.725882, 67.291504)"><path style="stroke:none" d=""/></g></g><g style="fill:#fbcd91;fill-opacity:1;"><g transform="translate(160.100731, 67.291504)"><path style="stroke:none" d="M 13.523438 0.582031 C 19.851562 0.582031 23.15625 -4.121094 23.15625 -8.589844 C 23.15625 -9.691406 21.765625 -10.039062 20.953125 -8.996094 C 20.3125 -7.953125 19.386719 -6.847656 17.121094 -6.847656 C 15.671875 -6.847656 14.511719 -8.007812 14.511719 -9.984375 L 14.511719 -23.914062 L 20.488281 -23.914062 C 21.242188 -23.914062 21.824219 -24.492188 21.824219 -25.246094 L 21.824219 -26.523438 C 21.824219 -27.277344 21.242188 -27.859375 20.488281 -27.859375 L 14.511719 -27.859375 L 14.511719 -33.722656 C 14.511719 -34.648438 13.871094 -35.230469 12.941406 -35.230469 L 11.609375 -35.230469 C 10.851562 -35.230469 10.214844 -34.648438 10.039062 -33.722656 C 9.285156 -30.179688 6.5 -27.859375 2.960938 -27.859375 L 1.855469 -27.859375 C 1.042969 -27.859375 0.523438 -27.335938 0.523438 -26.523438 L 0.523438 -25.246094 C 0.523438 -24.492188 1.101562 -23.914062 1.855469 -23.914062 L 4.0625 -23.914062 L 4.0625 -10.15625 C 4.0625 -3.132812 7.777344 0.582031 13.523438 0.582031 Z M 13.523438 0.582031 "/></g></g><g style="fill:#fbcd91;fill-opacity:1;"><g transform="translate(183.488807, 67.291504)"><path style="stroke:none" d="M 32.386719 -6.382812 L 31.632812 -16.832031 C 30.992188 -25.59375 25.652344 -28.441406 20.605469 -28.441406 C 17.644531 -28.441406 15.207031 -27.453125 13.523438 -25.710938 L 13.523438 -42.542969 C 13.523438 -43.878906 12.652344 -44.34375 11.316406 -43.761719 L 2.148438 -39.699219 C 1.335938 -39.351562 0.8125 -38.769531 0.8125 -38.074219 L 0.8125 -37.898438 C 0.8125 -36.273438 3.65625 -35.984375 3.65625 -33.257812 L 3.65625 -6.328125 C 3.65625 -3.65625 1.101562 -3.019531 1.101562 -1.335938 L 1.101562 -1.101562 C 1.101562 -0.40625 1.625 0 2.4375 0 L 15.03125 0 C 15.84375 0 16.425781 -0.40625 16.425781 -1.101562 L 16.425781 -1.335938 C 16.425781 -3.019531 13.8125 -3.65625 13.8125 -6.328125 L 13.8125 -18.980469 C 13.8125 -22.34375 15.03125 -24.609375 17.585938 -24.609375 C 20.257812 -24.609375 21.359375 -22.460938 21.648438 -17.179688 L 22.230469 -6.382812 C 22.34375 -3.714844 20.140625 -3.019531 20.140625 -1.335938 L 20.140625 -1.101562 C 20.140625 -0.40625 20.664062 0 21.53125 0 L 33.082031 0 C 33.953125 0 34.476562 -0.40625 34.476562 -1.101562 L 34.476562 -1.335938 C 34.476562 -3.019531 32.617188 -3.714844 32.386719 -6.382812 Z M 32.386719 -6.382812 "/></g></g><g style="fill:#fbcd91;fill-opacity:1;"><g transform="translate(218.716017, 67.291504)"><path style="stroke:none" d="M 25.246094 -9.171875 C 24.203125 -7.777344 21.9375 -6.617188 19.445312 -6.617188 C 16.597656 -6.617188 14.335938 -8.007812 12.828125 -10.390625 L 24.375 -16.890625 C 25.710938 -17.585938 26.640625 -18.746094 26.640625 -20.488281 C 26.640625 -24.144531 23.15625 -28.441406 15.554688 -28.441406 C 7.953125 -28.441406 1.277344 -22.695312 1.277344 -14.105469 C 1.277344 -5.28125 7.195312 0.582031 15.613281 0.582031 C 23.214844 0.582031 27.277344 -5.164062 27.394531 -8.359375 C 27.453125 -9.632812 26.058594 -9.984375 25.246094 -9.171875 Z M 14.511719 -25.59375 C 17.46875 -25.59375 18.398438 -21.476562 18.398438 -19.617188 C 18.398438 -18.398438 17.816406 -17.296875 16.890625 -16.65625 L 11.492188 -13.40625 C 10.910156 -15.148438 10.621094 -17.238281 10.621094 -19.5 C 10.621094 -22.867188 12.128906 -25.59375 14.511719 -25.59375 Z M 14.511719 -25.59375 "/></g></g><g style="fill:#fbcd91;fill-opacity:1;"><g transform="translate(247.095097, 67.291504)"><path style="stroke:none" d=""/></g></g><g style="fill:#fbcd91;fill-opacity:1;"><g transform="translate(258.469931, 67.291504)"><path style="stroke:none" d="M 30.878906 -6.328125 L 30.878906 -42.3125 C 30.878906 -43.878906 30.007812 -44.226562 28.324219 -43.703125 L 19.269531 -40.976562 C 18.457031 -40.742188 17.933594 -40.105469 17.933594 -39.46875 L 17.933594 -39.292969 C 17.933594 -37.609375 21.011719 -37.261719 21.011719 -34.535156 L 21.011719 -26.816406 C 19.445312 -27.859375 17.46875 -28.441406 15.03125 -28.441406 C 7.71875 -28.441406 1.277344 -22.578125 1.277344 -13.929688 C 1.277344 -4.410156 7.953125 0.582031 14.972656 0.582031 C 17.816406 0.582031 20.3125 -0.347656 22.054688 -1.972656 L 22.054688 -1.449219 C 22.054688 -0.582031 22.636719 0 23.5625 0 L 31.863281 0 C 32.675781 0 33.199219 -0.40625 33.199219 -1.101562 L 33.199219 -1.335938 C 33.199219 -2.960938 30.878906 -3.65625 30.878906 -6.328125 Z M 17.296875 -2.261719 C 12.941406 -2.4375 11.027344 -13.582031 11.203125 -18.457031 C 11.375 -23.101562 12.941406 -25.59375 15.785156 -25.59375 C 18.457031 -25.59375 21.011719 -22.054688 21.011719 -18.339844 L 21.011719 -7.140625 C 21.011719 -4.003906 19.269531 -2.207031 17.296875 -2.261719 Z M 17.296875 -2.261719 "/></g></g><g style="fill:#fbcd91;fill-opacity:1;"><g transform="translate(292.710551, 67.291504)"><path style="stroke:none" d="M 29.019531 -6.328125 L 27.742188 -16.714844 C 26.816406 -23.914062 21.417969 -28.441406 13.640625 -28.441406 C 7.71875 -28.441406 2.03125 -26.410156 2.03125 -21.648438 C 2.03125 -19.386719 3.65625 -17.875 6.09375 -17.875 C 11.261719 -17.875 9.632812 -25.652344 13.640625 -25.652344 C 16.65625 -25.652344 17.0625 -22.695312 17.761719 -15.84375 L 17.761719 -15.671875 C 16.308594 -16.542969 14.335938 -17.121094 11.898438 -17.121094 C 6.382812 -17.121094 1.449219 -14.105469 1.449219 -8.242188 C 1.449219 -2.261719 6.210938 0.582031 12.421875 0.582031 C 16.25 0.582031 18.574219 -0.753906 19.792969 -2.4375 C 20.257812 -0.347656 21.9375 0.347656 25.421875 0.347656 C 28.613281 0.347656 31.980469 -0.0585938 31.980469 -1.566406 C 31.980469 -3.191406 29.542969 -2.207031 29.019531 -6.328125 Z M 15.613281 -2.378906 C 13.234375 -2.378906 11.839844 -5.976562 11.839844 -10.097656 C 11.839844 -12.480469 13.058594 -14.046875 14.800781 -14.046875 C 16.484375 -14.046875 17.992188 -12.710938 18.398438 -9.226562 L 18.632812 -6.558594 C 18.632812 -4.585938 17.527344 -2.378906 15.613281 -2.378906 Z M 15.613281 -2.378906 "/></g></g><g style="fill:#fbcd91;fill-opacity:1;"><g transform="translate(324.687794, 67.291504)"><path style="stroke:none" d="M 13.523438 0.582031 C 19.851562 0.582031 23.15625 -4.121094 23.15625 -8.589844 C 23.15625 -9.691406 21.765625 -10.039062 20.953125 -8.996094 C 20.3125 -7.953125 19.386719 -6.847656 17.121094 -6.847656 C 15.671875 -6.847656 14.511719 -8.007812 14.511719 -9.984375 L 14.511719 -23.914062 L 20.488281 -23.914062 C 21.242188 -23.914062 21.824219 -24.492188 21.824219 -25.246094 L 21.824219 -26.523438 C 21.824219 -27.277344 21.242188 -27.859375 20.488281 -27.859375 L 14.511719 -27.859375 L 14.511719 -33.722656 C 14.511719 -34.648438 13.871094 -35.230469 12.941406 -35.230469 L 11.609375 -35.230469 C 10.851562 -35.230469 10.214844 -34.648438 10.039062 -33.722656 C 9.285156 -30.179688 6.5 -27.859375 2.960938 -27.859375 L 1.855469 -27.859375 C 1.042969 -27.859375 0.523438 -27.335938 0.523438 -26.523438 L 0.523438 -25.246094 C 0.523438 -24.492188 1.101562 -23.914062 1.855469 -23.914062 L 4.0625 -23.914062 L 4.0625 -10.15625 C 4.0625 -3.132812 7.777344 0.582031 13.523438 0.582031 Z M 13.523438 0.582031 "/></g></g><g style="fill:#fbcd91;fill-opacity:1;"><g transform="translate(348.075885, 67.291504)"><path style="stroke:none" d="M 25.246094 -9.171875 C 24.203125 -7.777344 21.9375 -6.617188 19.445312 -6.617188 C 16.597656 -6.617188 14.335938 -8.007812 12.828125 -10.390625 L 24.375 -16.890625 C 25.710938 -17.585938 26.640625 -18.746094 26.640625 -20.488281 C 26.640625 -24.144531 23.15625 -28.441406 15.554688 -28.441406 C 7.953125 -28.441406 1.277344 -22.695312 1.277344 -14.105469 C 1.277344 -5.28125 7.195312 0.582031 15.613281 0.582031 C 23.214844 0.582031 27.277344 -5.164062 27.394531 -8.359375 C 27.453125 -9.632812 26.058594 -9.984375 25.246094 -9.171875 Z M 14.511719 -25.59375 C 17.46875 -25.59375 18.398438 -21.476562 18.398438 -19.617188 C 18.398438 -18.398438 17.816406 -17.296875 16.890625 -16.65625 L 11.492188 -13.40625 C 10.910156 -15.148438 10.621094 -17.238281 10.621094 -19.5 C 10.621094 -22.867188 12.128906 -25.59375 14.511719 -25.59375 Z M 14.511719 -25.59375 "/></g></g></g></svg>